<mxfile host="app.diagrams.net" modified="2021-09-21T01:51:35.213Z" agent="5.0 (Windows)" etag="L4O70RphZy2v7ZYu2OLc" version="15.2.7" type="github">
  <diagram id="XVfqc22e8yLOzloufbjX" name="Page-1">
    <mxGraphModel dx="3264" dy="1840" grid="1" gridSize="10" guides="1" tooltips="1" connect="1" arrows="1" fold="1" page="1" pageScale="1" pageWidth="850" pageHeight="1100" math="0" shadow="0">
      <root>
        <mxCell id="0" />
        <mxCell id="1" parent="0" />
        <mxCell id="25tffuvgT5UxwBMltRPR-53" value="" style="triangle;whiteSpace=wrap;html=1;fontSize=23;verticalAlign=bottom;rotation=-90;" vertex="1" parent="1">
          <mxGeometry x="-1173.6" y="-372.64" width="529.71" height="1035.82" as="geometry" />
        </mxCell>
        <mxCell id="25tffuvgT5UxwBMltRPR-51" value="" style="triangle;whiteSpace=wrap;html=1;fontSize=23;verticalAlign=bottom;rotation=-90;" vertex="1" parent="1">
          <mxGeometry x="-1066.6100000000001" y="-271.17" width="316.39" height="630.42" as="geometry" />
        </mxCell>
        <mxCell id="25tffuvgT5UxwBMltRPR-13" value="" style="ellipse;whiteSpace=wrap;html=1;fontSize=21;" vertex="1" parent="1">
          <mxGeometry x="870" y="52.5" width="130" height="55" as="geometry" />
        </mxCell>
        <mxCell id="25tffuvgT5UxwBMltRPR-10" value="" style="ellipse;whiteSpace=wrap;html=1;fontSize=21;" vertex="1" parent="1">
          <mxGeometry x="870" y="140" width="320" height="90" as="geometry" />
        </mxCell>
        <mxCell id="25tffuvgT5UxwBMltRPR-4" value="" style="rounded=0;whiteSpace=wrap;html=1;" vertex="1" parent="1">
          <mxGeometry x="40" y="390" width="330" height="330" as="geometry" />
        </mxCell>
        <mxCell id="25tffuvgT5UxwBMltRPR-1" value="" style="rounded=0;whiteSpace=wrap;html=1;" vertex="1" parent="1">
          <mxGeometry x="40" y="40" width="730" height="240" as="geometry" />
        </mxCell>
        <mxCell id="25tffuvgT5UxwBMltRPR-2" value="&#xa;Design System&#xa;&#xa;" style="text;html=1;strokeColor=none;fillColor=none;align=center;verticalAlign=middle;whiteSpace=wrap;rounded=0;fontStyle=1;fontSize=21;" vertex="1" parent="1">
          <mxGeometry x="320" y="40" width="170" height="60" as="geometry" />
        </mxCell>
        <mxCell id="25tffuvgT5UxwBMltRPR-3" value="Digital Web Design " style="text;html=1;strokeColor=none;fillColor=none;align=center;verticalAlign=middle;whiteSpace=wrap;rounded=0;fontStyle=1;fontSize=21;" vertex="1" parent="1">
          <mxGeometry x="40" y="390" width="340" height="40" as="geometry" />
        </mxCell>
        <mxCell id="25tffuvgT5UxwBMltRPR-6" value="" style="rounded=0;whiteSpace=wrap;html=1;" vertex="1" parent="1">
          <mxGeometry x="430" y="390" width="340" height="330" as="geometry" />
        </mxCell>
        <mxCell id="25tffuvgT5UxwBMltRPR-7" value="Physical Station Design" style="text;html=1;strokeColor=none;fillColor=none;align=center;verticalAlign=middle;whiteSpace=wrap;rounded=0;fontStyle=1;fontSize=21;" vertex="1" parent="1">
          <mxGeometry x="430" y="390" width="337" height="40" as="geometry" />
        </mxCell>
        <mxCell id="25tffuvgT5UxwBMltRPR-8" value="Equity" style="text;html=1;strokeColor=none;fillColor=none;align=center;verticalAlign=middle;whiteSpace=wrap;rounded=0;fontStyle=1;fontSize=21;" vertex="1" parent="1">
          <mxGeometry x="895" y="60" width="80" height="40" as="geometry" />
        </mxCell>
        <mxCell id="25tffuvgT5UxwBMltRPR-9" value="Environmental Signage and Design" style="text;html=1;strokeColor=none;fillColor=none;align=center;verticalAlign=middle;whiteSpace=wrap;rounded=0;fontStyle=1;fontSize=21;" vertex="1" parent="1">
          <mxGeometry x="880" y="170" width="300" height="40" as="geometry" />
        </mxCell>
        <mxCell id="25tffuvgT5UxwBMltRPR-16" value="" style="shape=flexArrow;endArrow=classic;html=1;fontSize=21;" edge="1" parent="1">
          <mxGeometry width="50" height="50" relative="1" as="geometry">
            <mxPoint x="850" y="189.17000000000002" as="sourcePoint" />
            <mxPoint x="780" y="189.17000000000002" as="targetPoint" />
          </mxGeometry>
        </mxCell>
        <mxCell id="25tffuvgT5UxwBMltRPR-17" value="" style="shape=flexArrow;endArrow=classic;html=1;fontSize=21;" edge="1" parent="1">
          <mxGeometry width="50" height="50" relative="1" as="geometry">
            <mxPoint x="850" y="79.50000000000007" as="sourcePoint" />
            <mxPoint x="780" y="79.50000000000007" as="targetPoint" />
          </mxGeometry>
        </mxCell>
        <mxCell id="25tffuvgT5UxwBMltRPR-18" value="Buttons" style="text;html=1;strokeColor=none;fillColor=none;align=center;verticalAlign=middle;whiteSpace=wrap;rounded=0;fontSize=21;" vertex="1" parent="1">
          <mxGeometry x="567" y="190" width="40" height="20" as="geometry" />
        </mxCell>
        <mxCell id="25tffuvgT5UxwBMltRPR-19" value="Color Scheme" style="text;html=1;strokeColor=none;fillColor=none;align=center;verticalAlign=middle;whiteSpace=wrap;rounded=0;fontSize=21;" vertex="1" parent="1">
          <mxGeometry x="130" y="150" width="140" height="20" as="geometry" />
        </mxCell>
        <mxCell id="25tffuvgT5UxwBMltRPR-20" value="Logos" style="text;html=1;strokeColor=none;fillColor=none;align=center;verticalAlign=middle;whiteSpace=wrap;rounded=0;fontSize=21;" vertex="1" parent="1">
          <mxGeometry x="440" y="120" width="140" height="20" as="geometry" />
        </mxCell>
        <mxCell id="25tffuvgT5UxwBMltRPR-21" value="Font" style="text;html=1;strokeColor=none;fillColor=none;align=center;verticalAlign=middle;whiteSpace=wrap;rounded=0;fontSize=21;" vertex="1" parent="1">
          <mxGeometry x="285" y="190" width="140" height="20" as="geometry" />
        </mxCell>
        <mxCell id="25tffuvgT5UxwBMltRPR-22" value="Metro.net" style="text;html=1;strokeColor=none;fillColor=none;align=center;verticalAlign=middle;whiteSpace=wrap;rounded=0;fontSize=21;" vertex="1" parent="1">
          <mxGeometry x="220" y="490" width="140" height="20" as="geometry" />
        </mxCell>
        <mxCell id="25tffuvgT5UxwBMltRPR-23" value="my bus" style="text;html=1;strokeColor=none;fillColor=none;align=center;verticalAlign=middle;whiteSpace=wrap;rounded=0;fontSize=21;" vertex="1" parent="1">
          <mxGeometry x="70" y="520" width="90" height="20" as="geometry" />
        </mxCell>
        <mxCell id="25tffuvgT5UxwBMltRPR-24" value="Station Signs" style="text;html=1;strokeColor=none;fillColor=none;align=center;verticalAlign=middle;whiteSpace=wrap;rounded=0;fontSize=21;" vertex="1" parent="1">
          <mxGeometry x="540" y="520" width="130" height="20" as="geometry" />
        </mxCell>
        <mxCell id="25tffuvgT5UxwBMltRPR-26" value="" style="shape=flexArrow;endArrow=classic;startArrow=classic;html=1;fontSize=21;" edge="1" parent="1">
          <mxGeometry width="100" height="100" relative="1" as="geometry">
            <mxPoint x="200" y="380" as="sourcePoint" />
            <mxPoint x="200" y="300" as="targetPoint" />
          </mxGeometry>
        </mxCell>
        <mxCell id="25tffuvgT5UxwBMltRPR-28" value="" style="shape=flexArrow;endArrow=classic;startArrow=classic;html=1;fontSize=21;" edge="1" parent="1">
          <mxGeometry width="100" height="100" relative="1" as="geometry">
            <mxPoint x="567" y="379.9999999999999" as="sourcePoint" />
            <mxPoint x="567" y="299.9999999999999" as="targetPoint" />
          </mxGeometry>
        </mxCell>
        <mxCell id="25tffuvgT5UxwBMltRPR-29" value="Maps" style="text;html=1;strokeColor=none;fillColor=none;align=center;verticalAlign=middle;whiteSpace=wrap;rounded=0;fontSize=21;" vertex="1" parent="1">
          <mxGeometry x="460" y="450" width="80" height="20" as="geometry" />
        </mxCell>
        <mxCell id="25tffuvgT5UxwBMltRPR-30" value="Components Library" style="text;html=1;strokeColor=none;fillColor=none;align=center;verticalAlign=middle;whiteSpace=wrap;rounded=0;fontSize=21;" vertex="1" parent="1">
          <mxGeometry x="210" y="330" width="220" height="20" as="geometry" />
        </mxCell>
        <mxCell id="25tffuvgT5UxwBMltRPR-31" value="Design Toolkit" style="text;html=1;strokeColor=none;fillColor=none;align=center;verticalAlign=middle;whiteSpace=wrap;rounded=0;fontSize=21;" vertex="1" parent="1">
          <mxGeometry x="590" y="330" width="170" height="20" as="geometry" />
        </mxCell>
        <mxCell id="25tffuvgT5UxwBMltRPR-32" value="Time Tables" style="text;html=1;strokeColor=none;fillColor=none;align=center;verticalAlign=middle;whiteSpace=wrap;rounded=0;fontSize=21;" vertex="1" parent="1">
          <mxGeometry x="660" y="460" width="80" height="20" as="geometry" />
        </mxCell>
        <mxCell id="25tffuvgT5UxwBMltRPR-33" value="" style="rounded=0;whiteSpace=wrap;html=1;" vertex="1" parent="1">
          <mxGeometry x="850" y="390" width="340" height="330" as="geometry" />
        </mxCell>
        <mxCell id="25tffuvgT5UxwBMltRPR-34" value="External Contractors" style="text;html=1;strokeColor=none;fillColor=none;align=center;verticalAlign=middle;whiteSpace=wrap;rounded=0;fontStyle=1;fontSize=21;" vertex="1" parent="1">
          <mxGeometry x="850" y="390" width="337" height="40" as="geometry" />
        </mxCell>
        <mxCell id="25tffuvgT5UxwBMltRPR-37" value="Implementation" style="text;html=1;strokeColor=none;fillColor=none;align=center;verticalAlign=middle;whiteSpace=wrap;rounded=0;fontStyle=1;fontSize=21;" vertex="1" parent="1">
          <mxGeometry x="-180" y="410" width="170" height="60" as="geometry" />
        </mxCell>
        <mxCell id="25tffuvgT5UxwBMltRPR-38" value="Design" style="text;html=1;strokeColor=none;fillColor=none;align=center;verticalAlign=middle;whiteSpace=wrap;rounded=0;fontStyle=1;fontSize=21;" vertex="1" parent="1">
          <mxGeometry x="-170" y="120" width="170" height="60" as="geometry" />
        </mxCell>
        <mxCell id="25tffuvgT5UxwBMltRPR-39" value="" style="endArrow=none;dashed=1;html=1;fontSize=23;strokeWidth=5;" edge="1" parent="1">
          <mxGeometry width="50" height="50" relative="1" as="geometry">
            <mxPoint x="-200" y="290" as="sourcePoint" />
            <mxPoint x="1320" y="300" as="targetPoint" />
          </mxGeometry>
        </mxCell>
        <mxCell id="25tffuvgT5UxwBMltRPR-40" value="Braille" style="text;html=1;strokeColor=none;fillColor=none;align=center;verticalAlign=middle;whiteSpace=wrap;rounded=0;fontSize=21;fontStyle=2" vertex="1" parent="1">
          <mxGeometry x="510" y="650" width="80" height="20" as="geometry" />
        </mxCell>
        <mxCell id="25tffuvgT5UxwBMltRPR-41" value="WCAG&amp;nbsp; 2.0" style="text;html=1;strokeColor=none;fillColor=none;align=center;verticalAlign=middle;whiteSpace=wrap;rounded=0;fontSize=21;fontStyle=2" vertex="1" parent="1">
          <mxGeometry x="130" y="650" width="130" height="20" as="geometry" />
        </mxCell>
        <mxCell id="25tffuvgT5UxwBMltRPR-44" value="" style="ellipse;whiteSpace=wrap;html=1;fontSize=21;" vertex="1" parent="1">
          <mxGeometry x="350" y="-110" width="130" height="55" as="geometry" />
        </mxCell>
        <mxCell id="25tffuvgT5UxwBMltRPR-45" value="Equity" style="text;html=1;strokeColor=none;fillColor=none;align=center;verticalAlign=middle;whiteSpace=wrap;rounded=0;fontStyle=1;fontSize=21;" vertex="1" parent="1">
          <mxGeometry x="375" y="-102.5" width="80" height="40" as="geometry" />
        </mxCell>
        <mxCell id="25tffuvgT5UxwBMltRPR-49" value="" style="triangle;whiteSpace=wrap;html=1;fontSize=23;verticalAlign=bottom;rotation=-90;" vertex="1" parent="1">
          <mxGeometry x="-979.92" y="-188.04" width="145.31" height="285.79" as="geometry" />
        </mxCell>
        <mxCell id="25tffuvgT5UxwBMltRPR-50" value="Equity" style="text;html=1;strokeColor=none;fillColor=none;align=center;verticalAlign=middle;whiteSpace=wrap;rounded=0;fontStyle=1;fontSize=21;" vertex="1" parent="1">
          <mxGeometry x="-993.75" y="-55" width="170" height="60" as="geometry" />
        </mxCell>
        <mxCell id="25tffuvgT5UxwBMltRPR-52" value="Design System" style="text;html=1;strokeColor=none;fillColor=none;align=center;verticalAlign=middle;whiteSpace=wrap;rounded=0;fontStyle=1;fontSize=21;" vertex="1" parent="1">
          <mxGeometry x="-1000" y="80" width="170" height="60" as="geometry" />
        </mxCell>
        <mxCell id="25tffuvgT5UxwBMltRPR-54" value="&lt;div&gt;Digital &lt;br&gt;&lt;/div&gt;&lt;div&gt;Web Design &lt;/div&gt;" style="text;html=1;strokeColor=none;fillColor=none;align=center;verticalAlign=middle;whiteSpace=wrap;rounded=0;fontStyle=1;fontSize=21;" vertex="1" parent="1">
          <mxGeometry x="-1290" y="300" width="160" height="40" as="geometry" />
        </mxCell>
        <mxCell id="25tffuvgT5UxwBMltRPR-55" value="&lt;div&gt;Physical &lt;br&gt;&lt;/div&gt;&lt;div&gt;Design&lt;/div&gt;" style="text;html=1;strokeColor=none;fillColor=none;align=center;verticalAlign=middle;whiteSpace=wrap;rounded=0;fontStyle=1;fontSize=21;" vertex="1" parent="1">
          <mxGeometry x="-980" y="300" width="140" height="40" as="geometry" />
        </mxCell>
        <mxCell id="25tffuvgT5UxwBMltRPR-56" value="External Contractors" style="text;html=1;strokeColor=none;fillColor=none;align=center;verticalAlign=middle;whiteSpace=wrap;rounded=0;fontStyle=1;fontSize=21;" vertex="1" parent="1">
          <mxGeometry x="-680" y="300" width="140" height="40" as="geometry" />
        </mxCell>
      </root>
    </mxGraphModel>
  </diagram>
</mxfile>
